# xmcd
#
# Track frame offsets:
# 150
# 1799
# 20659
# 35890
# 59872
# 77275
# 80152
# 101452
# 124520
# 143048
# 167347
# 203120
# 222442
# 245820
# 269413
#
# Disc length: 4034 seconds
#
#
# Revision: 0
# Processed by: cddbd v1.5.1PL0 Copyright (c) Steve Scherf et al.
# Submitted via: FreeRIP 2.53 
#
DISCID=d10fc00f
DTITLE=Renaud Patigny, Carl Sonny Leyland and Bob Dartsch - Boogie Brothers Live
DYEAR=1900
DGENRE=Boogie Woogie
TTITLE0=Présentation de Carl Sonny Leyland
TTITLE1=47th Street Jive
TTITLE2=Old Before My Time
TTITLE3=Four O'Clock Blues
TTITLE4=Swanee River Boogie
TTITLE5=Présentation de Renaud Patigny
TTITLE6=Low Down Walk
TTITLE7=Daily Stream Boogie
TTITLE8=My Baby Left Me
TTITLE9=Willie The Strider
TTITLE10=Jungle Blues
TTITLE11=Tribute to Al and Pete
TTITLE12=Big Finish Boogie #1
TTITLE13=Jimmy's Mood
TTITLE14=Big Finish Boogie #2
EXTD=www.88boogie.com
EXTT0=
EXTT1=
EXTT2=
EXTT3=
EXTT4=
EXTT5=
EXTT6=
EXTT7=
EXTT8=
EXTT9=
EXTT10=
EXTT11=
EXTT12=
EXTT13=
EXTT14=
PLAYORDER=
